<?xml version="1.0" encoding="UTF-8" standalone="no"?>
<svg
   xmlns:dc="http://purl.org/dc/elements/1.1/"
   xmlns:cc="http://creativecommons.org/ns#"
   xmlns:rdf="http://www.w3.org/1999/02/22-rdf-syntax-ns#"
   xmlns:svg="http://www.w3.org/2000/svg"
   xmlns="http://www.w3.org/2000/svg"
   xmlns:sodipodi="http://sodipodi.sourceforge.net/DTD/sodipodi-0.dtd"
   xmlns:inkscape="http://www.inkscape.org/namespaces/inkscape"
   height="364.86975"
   width="500"
   inkscape:version="1.0 (4035a4fb49, 2020-05-01)"
   sodipodi:docname="ferret2.svg"
   xml:space="preserve"
   viewBox="0 0 499.99999 364.86974"
   y="0px"
   x="0px"
   id="Layer_1"
   version="1.1"><metadata
   id="metadata49"><rdf:RDF><cc:Work
       rdf:about=""><dc:format>image/svg+xml</dc:format><dc:type
         rdf:resource="http://purl.org/dc/dcmitype/StillImage" /><dc:title></dc:title></cc:Work></rdf:RDF></metadata><defs
   id="defs47" /><sodipodi:namedview
   fit-margin-right="0"
   fit-margin-left="0"
   fit-margin-bottom="50"
   fit-margin-top="50"
   showborder="true"
   inkscape:pagecheckerboard="true"
   inkscape:current-layer="Layer_1"
   inkscape:window-maximized="1"
   inkscape:window-y="-8"
   inkscape:window-x="-8"
   inkscape:cy="185.61157"
   inkscape:cx="237.96668"
   inkscape:zoom="1.9687615"
   showgrid="false"
   id="namedview45"
   inkscape:window-height="1377"
   inkscape:window-width="2560"
   inkscape:pageshadow="2"
   inkscape:pageopacity="0"
   guidetolerance="10"
   gridtolerance="10"
   objecttolerance="10"
   borderopacity="1"
   bordercolor="#666666"
   pagecolor="#0042ff" />
<g
   transform="matrix(-0.97656814,0,0,0.97656814,500.00017,-67.566046)"
   id="g6">
	<g
   id="g4">
		<path
   style="fill:#ffffff"
   id="path2"
   d="m 510.19,235.724 c -7.559,-37.431 -40.485,-73.378 -76.583,-83.615 -6.117,-1.735 -12.542,-0.986 -18.092,2.112 -5.55,3.098 -9.561,8.171 -11.296,14.287 -3.578,12.623 3.778,25.805 16.401,29.384 17.099,4.849 38.427,24.992 42.922,47.251 0.407,2.013 0.671,4.023 0.783,5.972 0.269,4.654 4.268,8.219 8.913,7.937 4.653,-0.269 8.206,-4.26 7.937,-8.913 -0.159,-2.741 -0.525,-5.547 -1.089,-8.337 -5.979,-29.608 -32.59,-53.833 -54.862,-60.148 -3.669,-1.041 -5.808,-4.872 -4.768,-8.54 0.504,-1.778 1.671,-3.254 3.284,-4.154 1.611,-0.901 3.477,-1.121 5.257,-0.612 30.457,8.636 58.249,39.038 64.648,70.718 5.528,27.374 -5.069,53.368 -29.842,73.192 -14.717,11.777 -31.802,17.747 -50.78,17.747 -12.061,0 -24.889,-2.433 -38.127,-7.232 0.028,-0.071 0.055,-0.139 0.083,-0.211 1.187,-2.996 2.394,-6.02 3.614,-9.049 0.416,-1.034 0.805,-2.086 1.18,-3.145 0.057,-0.161 0.123,-0.315 0.179,-0.477 0.086,0.03 0.172,0.062 0.258,0.092 29.504,10.533 54.718,7.663 74.948,-8.527 8.964,-7.172 15.715,-15.08 20.068,-23.507 2.139,-4.141 0.518,-9.231 -3.624,-11.37 -4.141,-2.14 -9.231,-0.516 -11.37,3.624 -3.26,6.309 -8.515,12.391 -15.618,18.074 -15.352,12.285 -35.111,14.238 -58.727,5.811 -0.646,-0.231 -1.307,-0.496 -1.961,-0.744 3.07,-21.345 -0.719,-45.45 -11.074,-67.791 -14.522,-31.332 -39.393,-54.783 -68.236,-64.343 -39.291,-13.021 -74.259,1.249 -102.355,12.716 -13.931,5.687 -25.972,10.596 -34.473,10.361 -11.362,-0.315 -19.589,-11.831 -29.113,-25.163 -9.311,-13.033 -19.866,-27.807 -36.181,-34.867 -24.413,-10.568 -46.717,2.816 -63.001,12.588 -7.028,4.217 -13.666,8.199 -18.272,9.023 -10.807,1.929 -17.363,5.767 -20.041,11.732 -2.115,4.712 -1.063,9.337 0.626,12.094 0.18,0.294 0.378,0.576 0.593,0.846 19.096,23.983 55.535,37.695 68.888,42.092 4.553,21.01 14.44,48.01 28.301,70.548 -0.084,4.521 -0.168,14.434 0.367,25.631 0.721,15.097 2.248,26.692 4.636,35.08 -3.108,1.481 -6.782,3.469 -10.443,5.993 -13.167,9.075 -19.947,20.663 -19.607,33.511 0.122,4.573 3.863,8.216 8.437,8.216 h 28.855 54.195 c 4.349,0 7.986,-3.309 8.401,-7.638 0.042,-0.44 4.44,-44.295 23.66,-71.793 2.67,-3.821 1.737,-9.082 -2.083,-11.752 -3.822,-2.669 -9.083,-1.738 -11.752,2.083 -16.817,24.06 -23.424,57.354 -25.65,72.222 H 124.29 c 2.855,-3.773 7.631,-7.249 15.56,-7.378 4.109,-0.066 7.573,-3.083 8.203,-7.144 0.242,-1.56 5.629,-38.507 -20.119,-66.918 -4.581,-5.055 -8.809,-10.786 -12.687,-16.887 -0.012,-0.019 -0.025,-0.038 -0.036,-0.057 -15.378,-24.219 -25.118,-54.323 -28.334,-71.813 -0.582,-3.165 -2.913,-5.723 -6.01,-6.596 -0.429,-0.12 -40.899,-11.732 -61.981,-34.135 1.215,-0.426 2.928,-0.899 5.307,-1.324 7.662,-1.369 15.592,-6.127 23.988,-11.166 15.318,-9.19 31.157,-18.691 47.614,-11.571 0.575,0.249 1.135,0.528 1.695,0.807 -5.088,-0.556 -10.603,1.414 -14.042,2.989 -4.23,1.938 -6.084,6.927 -4.158,11.162 1.925,4.235 6.926,6.104 11.166,4.194 0.848,-0.384 1.862,-0.756 2.794,-1.043 0.832,2.318 1.833,5.554 2.624,8.573 0.994,3.791 4.414,6.302 8.158,6.302 0.707,0 1.427,-0.09 2.143,-0.277 4.508,-1.182 7.206,-5.79 6.027,-10.299 -2.029,-7.754 -3.757,-12.24 -5.177,-14.945 6.673,6.006 12.362,13.948 17.92,21.729 11.125,15.573 22.628,31.674 42.379,32.224 12.068,0.347 25.622,-5.198 41.32,-11.605 26.854,-10.96 57.289,-23.382 90.666,-12.321 24.437,8.099 45.664,28.299 58.233,55.419 10.377,22.388 13.222,46.511 8.1,66.311 -0.005,0.019 -0.009,0.039 -0.015,0.06 -0.336,1.299 -0.717,2.572 -1.122,3.831 -0.079,0.244 -0.161,0.486 -0.242,0.728 -0.411,1.228 -0.844,2.442 -1.322,3.628 -0.534,1.328 -1.057,2.631 -1.573,3.921 -0.146,0.366 -0.291,0.731 -0.438,1.097 -0.441,1.105 -0.877,2.196 -1.304,3.274 -0.078,0.196 -0.155,0.392 -0.233,0.586 -12.002,30.259 -18.724,49.599 -21.726,58.644 h -49.161 c 3.05,-3.979 8.593,-7.533 18.622,-6.983 2.688,0.156 5.312,-1.004 7.019,-3.106 1.706,-2.101 2.301,-4.892 1.6,-7.506 -0.94,-3.506 -23.721,-85.87 -85.372,-82.734 -9.614,0.485 -18.617,3.425 -26.758,8.741 -3.902,2.549 -5,7.777 -2.453,11.68 2.55,3.905 7.779,5 11.68,2.454 5.685,-3.712 11.697,-5.68 18.38,-6.018 6.293,-0.314 12.104,0.65 17.453,2.562 -2.057,10.872 -4.115,31.938 4.703,52.621 -11.306,0.577 -20.426,3.681 -27.12,9.231 -5.372,4.455 -11.774,12.841 -11.774,27.498 0,4.662 3.779,8.439 8.439,8.439 h 53.489 67.397 c 3.714,0 6.993,-2.43 8.075,-5.984 0.058,-0.191 4.861,-15.855 16.874,-47.13 0.062,0.023 0.126,0.049 0.189,0.072 15.157,5.516 29.985,8.313 44.075,8.313 22.907,0 43.54,-7.216 61.325,-21.448 29.955,-23.972 42.683,-55.831 35.84,-89.711 z M 117.929,356.611 c 2.384,-0.757 4.31,-2.534 5.256,-4.851 0.946,-2.317 0.816,-4.933 -0.356,-7.144 -3.62,-6.831 -5.424,-22.877 -6.111,-38.509 13.459,15.908 15.167,35.38 15.043,45.204 -15.064,3.093 -23.011,14.162 -26.419,23.421 h -12.02 c 1.927,-3.791 5.304,-7.385 10.107,-10.748 7.052,-4.936 14.445,-7.354 14.5,-7.373 z m 151.931,18.122 h -37.13 c 0.935,-2.441 2.356,-4.442 4.276,-6.042 8.206,-6.838 24.203,-5.733 29.657,-4.732 3.394,0.644 6.839,-0.855 8.689,-3.774 1.85,-2.919 1.734,-6.67 -0.293,-9.469 -11.772,-16.253 -12.044,-35.699 -10.657,-47.799 16.645,13.622 26.877,35.869 31.705,48.677 -16.556,3.151 -23.443,15.072 -26.247,23.139 z" />
	</g>
</g>
<g
   transform="matrix(-0.97656814,0,0,0.97656814,500.00017,-67.566046)"
   style="fill:#ffffff"
   id="g12">
	<g
   style="fill:#ffffff"
   id="g10">
		<path
   style="fill:#ffffff"
   id="path8"
   d="m 58.952,151.025 c -5.391,0 -9.776,4.377 -9.776,9.758 0,5.38 4.385,9.758 9.776,9.758 5.391,0 9.776,-4.378 9.776,-9.758 0,-5.379 -4.385,-9.758 -9.776,-9.758 z" />
	</g>
</g>
<g
   transform="translate(-1.7987454e-4,-70.386936)"
   id="g14">
</g>
<g
   transform="translate(-1.7987454e-4,-70.386936)"
   id="g16">
</g>
<g
   transform="translate(-1.7987454e-4,-70.386936)"
   id="g18">
</g>
<g
   transform="translate(-1.7987454e-4,-70.386936)"
   id="g20">
</g>
<g
   transform="translate(-1.7987454e-4,-70.386936)"
   id="g22">
</g>
<g
   transform="translate(-1.7987454e-4,-70.386936)"
   id="g24">
</g>
<g
   transform="translate(-1.7987454e-4,-70.386936)"
   id="g26">
</g>
<g
   transform="translate(-1.7987454e-4,-70.386936)"
   id="g28">
</g>
<g
   transform="translate(-1.7987454e-4,-70.386936)"
   id="g30">
</g>
<g
   transform="translate(-1.7987454e-4,-70.386936)"
   id="g32">
</g>
<g
   transform="translate(-1.7987454e-4,-70.386936)"
   id="g34">
</g>
<g
   transform="translate(-1.7987454e-4,-70.386936)"
   id="g36">
</g>
<g
   transform="translate(-1.7987454e-4,-70.386936)"
   id="g38">
</g>
<g
   transform="translate(-1.7987454e-4,-70.386936)"
   id="g40">
</g>
<g
   transform="translate(-1.7987454e-4,-70.386936)"
   id="g42">
</g>
</svg>
