<?xml version="1.0" encoding="UTF-8" standalone="no"?>
<svg
   xmlns:dc="http://purl.org/dc/elements/1.1/"
   xmlns:cc="http://creativecommons.org/ns#"
   xmlns:rdf="http://www.w3.org/1999/02/22-rdf-syntax-ns#"
   xmlns:svg="http://www.w3.org/2000/svg"
   xmlns="http://www.w3.org/2000/svg"
   xmlns:sodipodi="http://sodipodi.sourceforge.net/DTD/sodipodi-0.dtd"
   xmlns:inkscape="http://www.inkscape.org/namespaces/inkscape"
   width="600mm"
   height="582.21356mm"
   viewBox="0 0 600 582.21356"
   version="1.1"
   id="svg8"
   inkscape:version="1.0 (4035a4fb49, 2020-05-01)"
   sodipodi:docname="basket.svg">
  <defs
     id="defs2" />
  <sodipodi:namedview
     id="base"
     pagecolor="#0055ff"
     bordercolor="#666666"
     borderopacity="1.0"
     inkscape:pageopacity="0"
     inkscape:pageshadow="2"
     inkscape:zoom="0.49497475"
     inkscape:cx="749.45895"
     inkscape:cy="1060.819"
     inkscape:document-units="mm"
     inkscape:current-layer="layer1"
     inkscape:document-rotation="0"
     showgrid="false"
     fit-margin-top="50"
     fit-margin-bottom="50"
     fit-margin-left="50"
     fit-margin-right="50"
     inkscape:window-width="2560"
     inkscape:window-height="1377"
     inkscape:window-x="-8"
     inkscape:window-y="-8"
     inkscape:window-maximized="1"
     inkscape:pagecheckerboard="true" />
  <metadata
     id="metadata5">
    <rdf:RDF>
      <cc:Work
         rdf:about="">
        <dc:format>image/svg+xml</dc:format>
        <dc:type
           rdf:resource="http://purl.org/dc/dcmitype/StillImage" />
        <dc:title />
      </cc:Work>
    </rdf:RDF>
  </metadata>
  <g
     inkscape:label="Layer 1"
     inkscape:groupmode="layer"
     id="layer1"
     transform="translate(35.069854,13.510587)">
    <path
       style="fill:#ffffff;stroke-width:0.568655"
       d="M 189.50129,502.41069 C 84.681657,502.16637 62.536719,501.98224 60.416779,501.33741 c -2.690462,-0.81839 -7.961155,-5.56863 -7.961155,-7.17501 0,-0.46177 -0.224997,-0.83958 -0.499955,-0.83958 -0.434471,0 -0.834517,-1.8562 -2.144714,-9.95145 -0.151841,-0.93829 -0.486702,-2.21776 -0.744114,-2.84327 -0.257411,-0.62553 -0.99285,-3.95215 -1.634328,-7.39249 -1.991278,-10.67968 -3.068461,-15.87751 -3.535425,-17.05965 -0.247081,-0.6255 -0.618537,-2.16087 -0.82542,-3.41191 -0.699745,-4.23102 -2.359048,-12.54397 -4.540291,-22.74616 -0.802402,-3.75313 -1.707518,-8.10333 -2.011355,-9.66715 -0.303826,-1.56379 -0.820627,-3.99478 -1.148438,-5.4022 -0.3278,-1.40741 -0.988192,-4.60611 -1.467532,-7.10818 -0.47934,-2.50207 -1.107429,-5.63679 -1.395754,-6.96601 -0.288324,-1.32923 -0.745958,-3.50433 -1.016958,-4.83357 -0.271,-1.32921 -1.068988,-4.97571 -1.773314,-8.10331 -0.704326,-3.12761 -1.645581,-7.60576 -2.091651,-9.95145 -0.446069,-2.3457 -1.066519,-5.41643 -1.378763,-6.82384 -0.312232,-1.40743 -0.929501,-4.47817 -1.371711,-6.82386 -0.861349,-4.56912 -1.242024,-6.37044 -3.124455,-14.78501 -1.109965,-4.96153 -2.114747,-9.86868 -3.376708,-16.49097 -0.268208,-1.40743 -1.420617,-6.90914 -2.560927,-12.22606 -2.545371,-11.86839 -3.14417,-14.7936 -3.550398,-17.34396 -0.174347,-1.09466 -0.517392,-2.24618 -0.762327,-2.55895 -0.244936,-0.31275 -0.629523,-2.35991 -0.854665,-4.54921 -0.22512,-2.18934 -0.603815,-4.23649 -0.8415225,-4.54923 -0.2377181,-0.31277 -0.5745469,-1.4643 -0.748516,-2.55896 -0.173969,-1.09466 -0.6785838,-3.90949 -1.1213508,-6.2552 -1.994554,-10.5668 -2.851632,-14.57031 -3.315704,-15.48811 -0.274614,-0.54308 -0.4993,-1.84387 -0.4993,-2.89065 0,-1.04678 -0.191916,-2.09262 -0.426488,-2.32411 -0.377516,-0.37256 -1.28241,-4.96985 -2.218972,-11.2734 -0.276238,-1.85928 -0.57195597,-2.19325 -2.38899297,-2.69794 -1.14054403,-0.31681 -2.52153003,-0.57742 -3.06886803,-0.57917 -0.547326,-9.4e-4 -0.995141,-0.25907 -0.995141,-0.57184 0,-0.31275 -0.383855,-0.56865 -0.852987,-0.56865 -1.194374,0 -5.1097667,-4.04538 -6.2586167,-6.46641 -0.5984,-1.26104 -0.963932,-3.46781 -0.973895,-5.87948 -0.0245,-5.92006 2.802119,-10.49377 8.0854987,-13.08328 1.762327,-0.86376 4.55654803,-0.99084 24.3967853,-1.10961 12.770221,-0.0764 22.632723,-0.36036 22.932522,-0.66017 0.519616,-0.51962 1.193664,-2.77457 2.153589,-7.20462 1.399678,-6.45949 1.653364,-7.50317 2.142418,-8.81415 0.291694,-0.78189 0.841087,-3.21288 1.220872,-5.40219 0.379774,-2.18933 0.910231,-4.49238 1.178796,-5.11789 0.268565,-0.62553 0.620573,-1.905 0.782254,-2.84328 0.949883,-5.51248 1.619994,-8.66402 2.055522,-9.66712 0.271589,-0.62551 0.611054,-1.90499 0.754354,-2.84326 0.143301,-0.9383 0.932593,-4.25023 1.754011,-7.35988 1.359303,-5.14612 2.12114,-8.66544 2.993341,-13.82777 0.172235,-1.01937 0.540755,-1.99407 0.818961,-2.166 0.278193,-0.17195 0.505816,-0.95386 0.505816,-1.73756 0,-1.3135 1.183165,-6.38384 4.528392,-19.40599 1.445859,-5.62844 2.295476,-9.73362 2.295476,-11.09153 0,-0.82165 0.255888,-1.65205 0.568643,-1.84534 0.312754,-0.19332 0.568654,-1.21689 0.568654,-2.27462 0,-1.05776 0.25589,-2.08134 0.56865,-2.27462 0.312768,-0.19331 0.568668,-0.9036 0.568668,-1.57846 0,-1.20866 2.376188,-11.54715 3.436754,-14.952894 0.29909,-0.960478 0.543815,-2.416782 0.543815,-3.236203 0,-0.819404 0.220163,-1.625925 0.489235,-1.79221 0.26909,-0.166303 0.655143,-1.512853 0.857934,-2.992322 0.358622,-2.616506 1.481822,-6.434428 2.061741,-7.008234 0.158128,-0.156347 1.022437,-1.755704 1.920862,-3.554082 0.898444,-1.798369 1.858041,-3.269756 2.132457,-3.269756 0.274415,0 0.502247,-0.319875 0.506297,-0.710813 0.0075,-0.735562 5.815275,-6.559586 8.794847,-8.819612 0.931725,-0.706717 3.362719,-2.114147 5.402212,-3.127602 2.039504,-1.013456 3.836129,-2.002426 3.992522,-2.197711 0.156357,-0.195264 1.179947,-0.544692 2.274614,-0.776483 1.09467,-0.231781 2.24617,-0.615634 2.55894,-0.852975 0.31276,-0.237351 1.33634,-0.578773 2.27461,-0.758713 0.93828,-0.17994 3.11339,-0.610442 4.83357,-0.956667 1.94622,-0.391738 12.57864,-0.671601 28.14839,-0.740944 l 25.02077,-0.111386 3.24245,-2.130938 c 1.78334,-1.172023 3.87938,-2.130948 4.65784,-2.130948 0.77847,0 1.57951,-0.265551 1.78011,-0.590126 0.51956,-0.840677 182.33447,-0.705738 185.08365,0.13733 3.02525,0.927766 4.64504,1.712478 6.77983,3.284501 l 1.94625,1.433183 23.35887,0.03647 c 23.03513,0.03592 32.44625,0.447181 33.06271,1.444625 0.17309,0.280062 1.05218,0.509196 1.95354,0.509196 0.90136,0 1.77906,0.226877 1.95044,0.504182 0.17139,0.277305 1.21129,0.672979 2.31092,0.879262 1.09962,0.206294 3.59741,1.269121 5.55066,2.361851 1.95324,1.092728 4.12711,2.273525 4.83081,2.623942 0.70373,0.350451 1.27948,0.851986 1.27948,1.114535 0,0.262571 0.32208,0.477371 0.71573,0.477371 2.06221,0 12.16069,12.2902 13.22252,16.09226 0.19227,0.688443 0.56875,1.763503 0.83663,2.389012 0.26788,0.625528 0.91674,3.184472 1.44193,5.686547 0.52517,2.502075 1.16812,5.061019 1.42876,5.686547 0.26061,0.62551 0.60351,1.904982 0.76196,2.843265 0.15845,0.93827 0.55973,2.79352 0.89173,4.12275 1.23323,4.93737 1.65504,6.76435 2.33058,10.0936 0.38075,1.87657 0.8982,3.92372 1.14988,4.54923 0.25168,0.62553 0.58546,1.90501 0.74174,2.84327 0.1562,0.93829 0.69682,3.49724 1.20125,5.68655 0.5044,2.18932 1.14766,5.00415 1.42947,6.25519 0.49589,2.20145 1.12806,4.79705 2.25056,9.24063 0.87382,3.45913 2.3395,9.96028 2.66021,11.79958 0.16361,0.93828 0.44714,2.0898 0.63003,2.55894 0.18292,0.46914 0.79547,2.90014 1.36124,5.40221 0.56576,2.50208 1.43873,6.21256 1.93994,8.2455 0.5012,2.03294 1.03861,4.46392 1.19425,5.40222 0.15556,0.93827 0.49401,2.21773 0.75198,2.84327 0.72433,1.75634 2.29675,9.08882 2.29675,10.71004 0,0.7969 0.22762,1.58956 0.50583,1.76151 0.2782,0.17195 0.6356,1.14664 0.79421,2.16601 0.15862,1.01937 0.85092,4.2844 1.5385,7.25561 0.68755,2.97122 1.54566,6.85308 1.90688,8.62635 0.36125,1.77328 0.84871,3.41528 1.08328,3.64888 0.23457,0.23358 0.42651,1.00977 0.42651,1.72481 0,0.71508 0.29085,1.93849 0.64636,2.71876 l 0.64639,1.41866 22.52628,0.17189 c 21.00391,0.16022 22.6776,0.24697 24.76527,1.28241 2.59078,1.28499 6.00649,4.26228 6.00649,5.23554 0,0.36705 0.25749,0.75319 0.57223,0.85811 1.13212,0.37738 1.85186,6.96496 1.13712,10.40777 -0.54577,2.62901 -1.15344,3.70526 -3.32113,5.88197 -3.19379,3.20711 -4.44581,3.94987 -7.47445,4.43417 -1.27164,0.20333 -2.49831,0.65596 -2.72594,1.00583 -0.22765,0.34988 -0.72292,2.42739 -1.10061,4.61671 -0.3777,2.18932 -0.84294,4.87621 -1.03389,5.97087 -0.19095,1.09466 -0.55469,2.50208 -0.80829,3.12759 -0.25361,0.62554 -0.74539,2.80063 -1.09286,4.83355 -0.34745,2.03294 -1.15112,6.12725 -1.78589,9.09849 -0.63478,2.97122 -1.41617,6.68168 -1.7364,8.24546 -0.32022,1.56381 -0.83703,3.99482 -1.14844,5.40222 -0.31141,1.40743 -0.82335,4.09431 -1.13762,5.97089 -0.31428,1.87656 -0.79644,3.9237 -1.07143,4.54922 -0.27501,0.62553 -0.63432,2.16088 -0.79847,3.41193 -0.16414,1.25104 -0.83565,4.7056 -1.49221,7.67683 -1.22119,5.52629 -2.6751,12.93689 -3.23543,16.49097 -0.17257,1.09466 -0.50778,2.24619 -0.74487,2.55894 -0.2371,0.31276 -0.61558,1.97609 -0.84106,3.69626 -0.22549,1.72017 -0.51234,3.51144 -0.63747,3.98056 -0.21159,0.79332 -0.5923,2.55507 -1.87387,8.67198 -0.27852,1.32924 -0.81834,3.8242 -1.19962,5.54439 -1.04954,4.73509 -1.54663,7.28955 -2.26843,11.6574 -0.36178,2.18933 -0.89503,4.42493 -1.18498,4.96801 -0.28993,0.5431 -0.52716,1.59247 -0.52716,2.33192 0,0.73948 -0.25448,2.08639 -0.56552,2.99316 -0.31102,0.90676 -0.80834,3.18402 -1.10513,5.06058 -0.29681,1.87655 -1.07433,5.71498 -1.72785,8.52982 -1.31183,5.65037 -1.94825,8.70058 -3.14418,15.06933 -0.44046,2.34571 -1.05402,5.41643 -1.36343,6.82385 -0.30943,1.40743 -0.72538,3.32662 -0.92436,4.26491 -0.19897,0.93827 -0.88422,4.13696 -1.52276,7.10817 -0.63855,2.97122 -1.40765,6.6817 -1.70911,8.24549 -0.54909,2.8484 -1.07016,5.33066 -2.17851,10.37793 -0.60942,2.77519 -1.94468,9.6893 -2.5533,13.22121 -0.18863,1.09467 -0.54634,2.50208 -0.7949,3.12761 -0.49853,1.25461 -2.13978,9.25403 -3.11181,15.16699 -0.34302,2.08664 -0.81559,3.98454 -1.05016,4.21752 -0.23458,0.23298 -0.42649,1.38942 -0.42649,2.56989 0,1.18045 -0.21863,2.28138 -0.48581,2.44651 -0.26719,0.16514 -0.65224,1.89272 -0.85567,3.83908 -0.57208,5.47321 -2.24744,10.06246 -4.53364,12.41877 -2.56629,2.64496 -3.70064,3.32753 -7.02034,4.22438 -2.91928,0.7887 -12.12828,0.91135 -77.80489,1.0362 -40.97153,0.0778 -131.43019,0.01 -201.01924,-0.15329 z M 90.555469,444.13423 V 414.84854 H 77.687484 64.819485 l 0.390015,2.93997 c 0.214501,1.61699 0.75581,4.34448 1.202947,6.06111 0.447118,1.71661 0.978362,4.42397 1.180553,6.01633 0.202181,1.59237 0.560681,3.15108 0.796631,3.46384 0.235969,0.31277 0.577209,1.59225 0.758278,2.84328 0.9075,6.26947 1.832888,11.04031 2.215463,11.42174 0.234572,0.23387 0.426487,1.06812 0.426487,1.85387 0,0.78577 0.236691,2.2145 0.526003,3.175 0.289294,0.96048 1.193832,5.07296 2.010066,9.13883 0.816253,4.06588 1.74135,8.3521 2.055769,9.52496 l 0.571716,2.13244 h 6.801009 6.801047 z m 109.771771,0 v -29.00137 l -44.93444,-0.14555 -44.93445,-0.14557 v 29.29254 29.29254 l 44.93445,-0.14556 44.93444,-0.14556 z m 109.16008,0.0334 v -29.25239 l -44.63936,-0.0426 -44.63935,-0.0427 v 29.29507 29.29505 h 44.63935 44.63936 V 444.1675 Z m 109.93417,-0.17556 0.10041,-29.14361 -45.08438,8e-5 -45.08438,8e-5 0.0575,28.94563 c 0.0318,15.92011 0.21214,29.10021 0.40107,29.28911 0.18891,0.18892 20.40579,0.27798 44.92639,0.19791 l 44.58291,-0.14557 z m 33.8216,28.74555 c 0.3753,-0.37531 0.68632,-1.46287 0.69112,-2.41677 0.005,-0.95393 0.48049,-3.65362 1.05713,-5.99931 0.5766,-2.3457 1.49846,-6.69591 2.04854,-9.66711 0.55007,-2.97124 1.21001,-5.91401 1.46655,-6.53954 0.25651,-0.62551 0.59429,-2.03294 0.75059,-3.12759 0.29298,-2.05188 1.71119,-9.35138 2.59635,-13.36337 0.27603,-1.25105 0.79139,-3.68205 1.14526,-5.40222 0.92146,-4.47925 1.54331,-7.40663 2.0233,-9.52496 l 0.41878,-1.84813 h -13.15012 -13.15012 v 29.2857 29.28568 h 6.71011 c 4.46077,0 6.93886,-0.22874 7.39251,-0.68238 z m -33.77585,-111.77575 -0.0546,-33.40165 -45.00819,-0.14556 -45.00817,-0.14555 0.0262,32.99262 c 0.0144,18.14594 -0.11655,33.22339 -0.2909,33.50545 -0.17434,0.28206 -0.0598,0.59866 0.25466,0.70356 0.31438,0.10497 20.72355,0.1238 45.3537,0.0417 l 44.78212,-0.14893 z m -328.911771,-0.1354 v -33.5506 H 68.588822 46.622182 l 0.392006,3.46495 c 0.215613,1.90574 0.632504,4.09749 0.926444,4.87058 0.293917,0.7731 0.534405,2.14156 0.534405,3.04102 0,0.89945 0.255888,1.79352 0.568654,1.98683 0.312765,0.19329 0.568665,0.97241 0.568665,1.73136 0,0.75894 0.256277,2.47113 0.569509,3.80486 2.025355,8.62391 2.825634,12.46539 3.170636,15.21964 0.215467,1.7202 0.58481,3.3835 0.820784,3.69626 0.235972,0.31276 0.567474,1.59223 0.736695,2.84328 0.321829,2.37913 1.735474,9.65227 2.68031,13.78986 1.109496,4.85871 1.714968,7.87236 2.056501,10.23576 l 0.349249,2.41679 h 15.279716 15.279713 z m 109.883141,1.56381 c 0.0833,-17.59276 0.0705,-32.69053 -0.0286,-33.55061 l -0.17994,-1.5638 H 155.3442 110.45829 v 33.5506 33.55059 h 44.91441 44.91441 z m 109.04871,-1.56381 v -33.55062 h -44.63936 -44.63935 v 33.55058 33.5506 h 44.63935 44.63936 z m 160.55804,31.41814 c 0.19103,-1.17286 0.6101,-3.28397 0.93126,-4.69139 0.32119,-1.40742 0.82452,-3.71048 1.11855,-5.1179 0.29404,-1.40741 0.79562,-3.71046 1.11465,-5.11789 0.31901,-1.4074 0.72236,-3.19866 0.89633,-3.98057 0.17396,-0.7819 0.45883,-2.57316 0.63307,-3.98058 0.17422,-1.40742 0.53492,-3.07074 0.80152,-3.69625 0.26661,-0.62553 0.59532,-1.905 0.73047,-2.84327 0.46917,-3.25701 2.70857,-14.22597 3.25894,-15.96271 0.30438,-0.96048 0.55341,-2.5447 0.55341,-3.52052 0,-0.97579 0.2559,-1.93233 0.56866,-2.12564 0.31277,-0.19328 0.56866,-1.12083 0.56866,-2.06122 0,-0.94039 0.23486,-2.14867 0.52192,-2.68504 0.28707,-0.53638 0.70396,-2.82261 0.92646,-5.0805 l 0.40451,-4.10526 h -21.96665 -21.96665 v 33.5506 33.55059 h 15.27878 15.27879 z M 90.555469,278.08722 V 248.23287 H 61.031947 c -16.237937,0 -29.891491,0.14121 -30.341252,0.3138 -0.652542,0.2504 -0.711076,0.7961 -0.289748,2.70112 0.290392,1.313 0.65332,3.28292 0.806505,4.37758 0.153131,1.09467 0.498121,2.50208 0.766553,3.1276 0.26842,0.62551 0.625109,2.03294 0.792639,3.1276 0.167519,1.09466 0.969077,5.06103 1.781209,8.81414 0.812143,3.75311 1.730192,8.10332 2.0401,9.66711 0.309897,1.56381 0.823719,3.99481 1.141811,5.40222 0.318103,1.40743 0.882732,4.52241 1.254743,6.92218 0.372024,2.39978 0.868321,4.55357 1.102893,4.78618 0.23456,0.2326 0.426477,1.26082 0.426477,2.28488 0,1.02409 0.255899,2.02011 0.568665,2.21341 0.312766,0.19329 0.568653,1.30874 0.568653,2.47876 0,1.17005 0.307073,2.43441 0.682376,2.80973 0.508985,0.50898 6.722763,0.68238 24.452138,0.68238 h 23.76976 z m 109.514571,29.20696 c 0.20332,-0.32898 0.40352,-13.63555 0.44485,-29.57013 0.074,-28.53286 0.0578,-28.97611 -1.06216,-29.24599 -0.62551,-0.15072 -20.84116,-0.20356 -44.92367,-0.11735 l -43.78637,0.15651 -0.14734,29.24889 c -0.11606,23.02128 0.005,29.34619 0.56864,29.70578 1.12161,0.71563 88.46189,0.54108 88.90609,-0.17769 z m 109.41728,-29.21895 v -29.86631 l -44.62838,0.0471 -44.62835,0.0471 -0.15313,12.33316 c -0.0843,6.78324 -0.082,20.20191 0.005,29.81927 l 0.15797,17.4861 h 44.62347 44.62349 v -29.86623 z m 109.5055,29.23361 c 0.21509,-0.348 0.42211,-13.65169 0.46007,-29.56378 0.0548,-22.98339 -0.0801,-28.98827 -0.65652,-29.20942 -1.06275,-0.40775 -87.45593,-0.36081 -88.52151,0.048 -0.80923,0.31055 -0.90017,3.33896 -0.87407,29.10704 0.0202,19.84044 0.22093,28.99158 0.64756,29.50562 0.83117,1.00151 88.32666,1.11213 88.94447,0.11251 z m 68.33295,-0.0669 c 0.5415,-0.67861 0.83028,-1.80218 1.61067,-6.26632 0.1777,-1.01646 0.54568,-2.35991 0.81772,-2.98545 0.27206,-0.6255 0.62253,-2.03293 0.77883,-3.12759 0.41858,-2.93151 3.44589,-18.00737 4.91015,-24.45212 0.70827,-3.11741 2.22927,-10.92606 2.65834,-13.6477 0.17259,-1.09466 0.51608,-2.24619 0.76332,-2.55896 0.24724,-0.31274 0.53183,-1.72017 0.63242,-3.12757 l 0.18288,-2.55895 -30.26981,-0.15298 -30.26982,-0.15297 v 29.84166 29.84167 l 23.80462,0.0347 c 18.591,0.027 23.93079,-0.12348 24.38068,-0.68728 z m -55.65543,-87.33551 30.34537,-0.10619 -0.31919,-1.56379 c -0.17557,-0.8601 -0.70327,-3.35507 -1.17268,-5.54438 -0.46943,-2.18933 -1.01381,-4.74827 -1.20981,-5.68655 -0.19597,-0.93827 -0.57553,-2.21775 -0.84341,-2.84327 -0.26789,-0.6255 -0.61938,-1.90498 -0.78107,-2.84327 -0.70629,-4.09845 -3.78311,-17.32894 -4.36401,-18.76559 -0.25293,-0.62551 -0.59217,-1.90499 -0.75384,-2.84326 -1.05725,-6.13568 -1.60797,-8.65039 -2.08427,-9.51725 -0.29839,-0.54309 -0.54254,-1.74348 -0.54254,-2.66755 0,-0.92405 -0.25589,-1.83826 -0.56866,-2.03156 -0.31276,-0.1933 -0.56865,-0.89141 -0.56865,-1.55134 0,-1.04279 -1.80835,-9.40535 -3.44581,-15.93477 -0.29412,-1.17286 -0.7747,-3.09206 -1.06796,-4.26492 -0.29326,-1.17284 -0.93992,-4.05165 -1.43701,-6.39736 -0.8807,-4.15582 -1.6865,-7.34764 -2.58411,-10.23577 -0.24302,-0.78191 -0.75252,-2.957 -1.13222,-4.83356 -0.37972,-1.87655 -0.90753,-4.05166 -1.17289,-4.83356 -0.2654,-0.7819 -0.65411,-2.7011 -0.86387,-4.2649 -0.20974,-1.5638 -0.57463,-3.09917 -0.81086,-3.41193 -0.23624,-0.31276 -0.57664,-1.46428 -0.75644,-2.55895 -0.30224,-1.84013 -1.50549,-7.614091 -2.42932,-11.657407 -0.44072,-1.928906 -2.93658,-5.758491 -4.72296,-7.246838 -2.51925,-2.09894 -7.29822,-4.382897 -10.5682,-5.050753 -2.26419,-0.46245 -11.40561,-0.763012 -27.17522,-0.893503 l -23.76328,-0.196631 -1.92183,1.465847 c -1.05699,0.806222 -3.28259,1.963237 -4.94572,2.571122 -2.94855,1.077731 -5.3194,1.105059 -95.15389,1.097006 -101.35923,-0.01003 -94.74929,0.2208 -99.36887,-3.456431 l -2.12098,-1.688344 -24.32144,0.198647 c -26.05393,0.212812 -27.5319,0.355715 -33.13647,3.203737 -6.688564,3.398897 -9.239595,7.674788 -10.630742,17.818698 -0.161194,1.17481 -0.521794,2.27747 -0.801515,2.45034 -0.279713,0.17289 -0.508594,1.07039 -0.508594,1.99446 0,0.92405 -0.244144,2.12444 -0.542532,2.66753 -0.298406,0.5431 -0.796528,2.39486 -1.106934,4.11503 -0.310425,1.72017 -0.808809,4.15118 -1.107525,5.40221 -0.298725,1.25105 -0.806606,3.42615 -1.128647,4.83356 -1.753669,7.66417 -3.046875,12.99023 -3.530709,14.54105 -0.299644,0.96049 -0.5448,2.30741 -0.5448,2.99316 0,0.68575 -0.244163,1.69116 -0.542541,2.23425 -0.298416,0.54307 -0.796547,2.39485 -1.106963,4.11502 -0.310434,1.72018 -1.109325,5.43065 -1.775325,8.24549 -0.666,2.81484 -1.338656,5.75762 -1.494815,6.53951 -0.156207,0.78191 -0.493144,1.93342 -0.748866,2.55895 -0.660647,1.61605 -2.292647,9.03753 -2.292647,10.42574 0,0.6405 -0.255891,1.32271 -0.568659,1.516 -0.31276,0.1933 -0.56866,1.31729 -0.56866,2.49774 0,1.18044 -0.191915,2.33739 -0.426478,2.57099 -0.234572,0.2336 -0.717159,1.87558 -1.072397,3.64887 -0.355247,1.77328 -1.208503,5.52719 -1.89614,8.34203 -0.687619,2.81484 -1.373991,5.88558 -1.525294,6.82385 -0.15135,0.93827 -0.497288,2.21774 -0.768891,2.84326 -0.271584,0.62551 -0.752278,2.54474 -1.068178,4.26491 -0.315909,1.72017 -0.832481,4.15117 -1.147959,5.40221 -0.315469,1.25105 -0.742726,2.97789 -0.949463,3.83742 l -0.375881,1.56282 160.568755,0.14313 c 88.31281,0.0787 163.38358,0.12702 166.82393,0.1072 3.44036,-0.0198 19.91062,-0.0838 36.60058,-0.14217 z"
       id="path54" />
  </g>
</svg>
