<?xml version="1.0" encoding="UTF-8" standalone="no"?>
<svg
   xmlns:dc="http://purl.org/dc/elements/1.1/"
   xmlns:cc="http://creativecommons.org/ns#"
   xmlns:rdf="http://www.w3.org/1999/02/22-rdf-syntax-ns#"
   xmlns:svg="http://www.w3.org/2000/svg"
   xmlns="http://www.w3.org/2000/svg"
   xmlns:sodipodi="http://sodipodi.sourceforge.net/DTD/sodipodi-0.dtd"
   xmlns:inkscape="http://www.inkscape.org/namespaces/inkscape"
   width="500mm"
   height="394.71442mm"
   viewBox="0 0 499.99999 394.71442"
   version="1.1"
   id="svg8"
   inkscape:version="1.0 (4035a4fb49, 2020-05-01)"
   sodipodi:docname="ferret.svg">
  <defs
     id="defs2" />
  <sodipodi:namedview
     inkscape:pagecheckerboard="true"
     id="base"
     pagecolor="#0039ff"
     bordercolor="#666666"
     borderopacity="1.0"
     inkscape:pageopacity="0"
     inkscape:pageshadow="2"
     inkscape:zoom="0.7"
     inkscape:cx="1243.5087"
     inkscape:cy="752.3472"
     inkscape:document-units="mm"
     inkscape:current-layer="g24"
     inkscape:document-rotation="0"
     showgrid="false"
     inkscape:window-width="2560"
     inkscape:window-height="1377"
     inkscape:window-x="-8"
     inkscape:window-y="-8"
     inkscape:window-maximized="1"
     fit-margin-top="50"
     fit-margin-left="0"
     fit-margin-right="0"
     fit-margin-bottom="50" />
  <metadata
     id="metadata5">
    <rdf:RDF>
      <cc:Work
         rdf:about="">
        <dc:format>image/svg+xml</dc:format>
        <dc:type
           rdf:resource="http://purl.org/dc/dcmitype/StillImage" />
        <dc:title></dc:title>
      </cc:Work>
    </rdf:RDF>
  </metadata>
  <g
     inkscape:label="Layer 1"
     inkscape:groupmode="layer"
     id="layer1"
     transform="translate(-47.400063,-71.427549)">
    <g
       id="g24"
       transform="matrix(4.5580304,0,0,5.0814947,-259.09929,-549.38504)"
       style="fill:#ffffff">
      <path
         style="fill:#ffffff;fill-opacity:1;stroke-width:0.264583"
         d="m 105.61681,188.92247 c -1.30823,-1.80595 -1.93374,-3.79585 -1.96601,-6.25431 -0.0165,-1.25944 -0.14043,-2.18061 -0.29321,-2.17995 -0.6814,0.003 -2.83303,0.81719 -3.841236,1.45364 -1.525458,0.96298 -4.765702,2.3182 -7.00668,2.93051 -1.445517,0.39497 -2.723298,0.50503 -5.820833,0.50136 -4.484989,-0.005 -5.957869,-0.33633 -9.789583,-2.20013 -6.465889,-3.14511 -9.660495,-7.92716 -9.655437,-14.45336 0.0033,-4.32057 1.513223,-8.80564 4.310549,-12.80443 3.044291,-4.35183 9.770991,-9.828 12.072297,-9.828 1.198277,0 1.871549,0.68286 1.871549,1.89821 0,1.24447 -0.65564,1.97943 -4.018867,4.50512 -3.565061,2.67725 -6.726748,7.27474 -7.787338,11.32375 -0.648041,2.47403 -0.575709,5.56072 0.176658,7.53867 1.678774,4.41346 7.861706,7.58255 13.270649,6.80192 2.278337,-0.32881 3.881215,-1.02747 5.195104,-2.26443 1.802593,-1.69704 2.713447,-4.58916 3.344995,-10.62095 1.042196,-9.95379 2.449279,-13.98275 6.298613,-18.0351 1.02682,-1.08097 2.62487,-2.45556 3.55124,-3.05466 1.16282,-0.75201 1.59936,-1.1742 1.40996,-1.3636 -0.4751,-0.4751 -0.31658,-0.62457 1.3793,-1.3007 2.85962,-1.14009 5.34493,-1.55581 8.75387,-1.46426 1.698,0.0456 3.08704,-0.002 3.08675,-0.10623 -2.9e-4,-0.10402 -0.23864,-0.31657 -0.52969,-0.47233 -1.0965,-0.58682 -0.48623,-0.79361 2.31511,-0.78445 5.45744,0.0178 8.52979,1.19329 11.24132,4.30083 3.6125,4.1401 5.31667,5.21925 8.53628,5.40556 3.12633,0.18091 3.97323,-0.7209 5.27277,-5.61464 1.28529,-4.84011 2.47829,-6.76378 5.38968,-8.69066 2.32914,-1.54152 3.95168,-2.06551 6.43708,-2.07879 4.34381,-0.0232 8.39587,2.2014 12.23498,6.71709 1.15188,1.35489 1.55685,1.62193 3.81507,2.51572 2.72204,1.07736 2.71283,1.01764 0.23649,1.53281 -1.31672,0.27392 -0.57635,1.27874 1.53893,2.08863 0.14552,0.0557 -0.44979,0.83634 -1.32292,1.73471 -2.47273,2.54422 -6.50765,4.22685 -10.18645,4.2479 -1.19063,0.007 -1.19063,0.007 -1.23854,3.51033 -0.0568,4.15423 -0.6128,6.66458 -2.1846,9.86373 -1.21885,2.48075 -2.30507,3.68939 -4.35594,4.84682 -0.82867,0.46768 -1.83049,1.31807 -2.27393,1.93022 -1.88814,2.6065 -3.22573,6.63943 -3.59482,10.83863 -0.17715,2.01548 -0.17715,2.01548 1.11294,2.20611 0.70955,0.10485 1.97551,0.55435 2.81324,0.9989 1.67253,0.88754 2.54428,2.01233 2.84834,3.6751 0.18767,1.02629 0.18767,1.02629 -5.66378,1.0299 -3.2183,0.002 -6.10441,0.0715 -6.41357,0.15447 -0.52144,0.13994 -0.57521,0.02 -0.74312,-1.65726 -0.47672,-4.76198 -2.13072,-8.4319 -5.19532,-11.52739 -1.56565,-1.58143 -2.50002,-2.27271 -4.11268,-3.0427 -2.03859,-0.97336 -2.15701,-0.99636 -5.12947,-0.99636 -3.36381,0 -5.01014,0.39563 -7.18921,1.72761 -1.23608,0.75558 -1.23608,0.75558 -1.41511,-0.30409 -0.287,-1.69878 -1.91208,-4.63867 -3.36998,-6.09657 -1.33759,-1.33759 -4.54543,-3.13216 -5.59883,-3.13216 -0.29941,0 0.0703,0.29539 0.86607,0.69193 3.07973,1.53469 5.27076,4.65675 5.52324,7.87021 0.22628,2.88004 -1.28343,6.21948 -3.71102,8.20871 -1.20679,0.98888 -3.72687,2.27227 -4.47028,2.27657 -0.24607,0.001 -0.53042,0.13692 -0.6319,0.3011 -0.1355,0.21925 0.68582,0.24892 3.09324,0.11172 3.78801,-0.21588 6.62859,0.25578 7.84575,1.30273 0.62611,0.53856 0.67013,0.68183 0.39499,1.2857 -0.17031,0.37377 -0.99947,1.22113 -1.84258,1.883 -1.53292,1.20341 -1.53292,1.20341 -7.81512,1.20358 -6.28219,1.7e-4 -6.28219,1.7e-4 -7.069,-1.08599 z m 48.79186,-47.45638 c -1.07664,-2.57677 0.17885,-4.63871 2.82447,-4.63871 0.51018,0 0.72791,-0.10391 0.61172,-0.29192 -0.22756,-0.36821 -3.3247,-0.0707 -4.54658,0.43673 -1.00584,0.41772 -1.52863,1.3821 -1.28197,2.36486 0.17485,0.69668 2.14817,3.04658 2.55835,3.04658 0.11956,0 0.0449,-0.41289 -0.16599,-0.91754 z m 10.19996,-1.94299 c 0,-0.63057 -0.91202,-1.59058 -1.69862,-1.78801 -0.99857,-0.25062 -2.7993,0.9316 -2.7993,1.83781 0,0.14 1.44241,0.30388 3.37344,0.38326 0.92608,0.0381 1.12448,-0.0383 1.12448,-0.43306 z"
         id="path26" />
    </g>
  </g>
</svg>
