<?xml version="1.0" encoding="UTF-8" standalone="no"?>
<svg
   xmlns:dc="http://purl.org/dc/elements/1.1/"
   xmlns:cc="http://creativecommons.org/ns#"
   xmlns:rdf="http://www.w3.org/1999/02/22-rdf-syntax-ns#"
   xmlns:svg="http://www.w3.org/2000/svg"
   xmlns="http://www.w3.org/2000/svg"
   xmlns:sodipodi="http://sodipodi.sourceforge.net/DTD/sodipodi-0.dtd"
   xmlns:inkscape="http://www.inkscape.org/namespaces/inkscape"
   width="600mm"
   height="582.21356mm"
   viewBox="0 0 600 582.21356"
   version="1.1"
   id="svg8"
   inkscape:version="1.0 (4035a4fb49, 2020-05-01)"
   sodipodi:docname="user.svg">
  <defs
     id="defs2" />
  <sodipodi:namedview
     id="base"
     pagecolor="#0055ff"
     bordercolor="#666666"
     borderopacity="1.0"
     inkscape:pageopacity="0"
     inkscape:pageshadow="2"
     inkscape:zoom="0.35"
     inkscape:cx="-47.08411"
     inkscape:cy="1028.5797"
     inkscape:document-units="mm"
     inkscape:current-layer="layer1"
     inkscape:document-rotation="0"
     showgrid="false"
     fit-margin-top="50"
     fit-margin-bottom="50"
     fit-margin-left="50"
     fit-margin-right="50"
     inkscape:window-width="2560"
     inkscape:window-height="1377"
     inkscape:window-x="-8"
     inkscape:window-y="-8"
     inkscape:window-maximized="1"
     inkscape:pagecheckerboard="true" />
  <metadata
     id="metadata5">
    <rdf:RDF>
      <cc:Work
         rdf:about="">
        <dc:format>image/svg+xml</dc:format>
        <dc:type
           rdf:resource="http://purl.org/dc/dcmitype/StillImage" />
        <dc:title />
      </cc:Work>
    </rdf:RDF>
  </metadata>
  <g
     inkscape:label="Layer 1"
     inkscape:groupmode="layer"
     id="layer1"
     transform="translate(35.069854,13.510587)">
    <path
       style="fill:#ffffff;stroke-width:1.11512"
       d="M 25.468083,516.03614 C 15.261979,511.52081 13.375884,503.83242 15.988539,477.39404 20.611723,430.61035 37.569936,386.7447 65.223542,350.03831 76.3723,335.23987 98.636577,312.5386 105.0166,309.46425 c 11.46352,-5.52389 24.95614,2.69632 24.95614,15.20431 0,7.09258 -1.20103,9.20649 -10.07102,17.72619 -38.413501,36.89632 -62.909492,84.68344 -67.715316,132.10001 l -0.76114,7.50977 H 265.21407 479.0029 l -0.76115,-7.50977 c -4.74265,-46.79335 -30.7672,-97.89174 -66.66388,-130.89246 -10.02688,-9.21798 -16.74235,-14.40679 -29.2466,-22.59791 -10.66831,-6.98847 -37.10345,-20.34812 -40.26345,-20.34812 -0.8853,0 -6.34271,2.39705 -12.12755,5.32673 -21.69555,10.9876 -39.83819,15.25098 -64.7262,15.21007 -40.02678,-0.0656 -72.54894,-13.47426 -100.7365,-41.5324 -28.20456,-28.0751 -41.70774,-60.53957 -41.70774,-100.2741 0,-39.73457 13.50318,-72.19903 41.70774,-100.274108 28.20454,-28.07508 60.81872,-41.516268 100.7365,-41.516268 39.91779,0 72.53197,13.441188 100.73651,41.516268 26.05685,25.937208 39.844,56.667108 41.9629,93.530118 1.88694,32.82816 -8.31389,65.00841 -29.5739,93.29561 -3.35474,4.46362 -5.91239,8.25727 -5.68365,8.43035 0.22875,0.17325 5.697,3.21273 12.15175,6.75479 44.30084,24.31041 78.98797,59.49626 102.61267,104.08794 16.69094,31.50445 27.19879,72.16056 27.47954,106.32256 0.116,14.15144 0.04,14.64009 -2.8911,18.47894 -6.3269,8.28663 16.1688,7.5989 -246.96363,7.55038 C 70.683216,517.52333 28.226957,517.25656 25.468083,516.03614 Z M 291.08476,283.01523 c 18.87372,-4.93605 34.97284,-13.93336 48.84166,-27.29604 35.81826,-34.51116 42.78145,-89.58376 16.70113,-132.09188 -7.5528,-12.31028 -23.03005,-27.716483 -35.3971,-35.234616 -28.0296,-17.039663 -61.97524,-20.350782 -93.22908,-9.093732 -28.0491,10.102753 -53.1871,35.125368 -63.33645,63.045708 -14.5313,39.97482 -5.11029,82.25097 25.01066,112.23366 16.03165,15.95804 34.64501,25.84155 56.41956,29.95818 11.60335,2.19369 33.63317,1.44878 44.98962,-1.52128 z"
       id="path24" />
  </g>
</svg>
